<svg xmlns="http://www.w3.org/2000/svg" width="48.043" height="42.926" viewBox="0 0 48.043 42.926">
  <g id="noun-virtual-reality-3551831" transform="translate(-16.41 -20.02)">
    <circle id="Ellipse_7" data-name="Ellipse 7" cx="2.863" cy="2.863" r="2.863" transform="translate(37.587 57.22)" fill="#009695"/>
    <circle id="Ellipse_8" data-name="Ellipse 8" cx="2.863" cy="2.863" r="2.863" transform="translate(49.037 52.926)" fill="#009695"/>
    <circle id="Ellipse_9" data-name="Ellipse 9" cx="2.863" cy="2.863" r="2.863" transform="translate(26.136 52.926)" fill="#009695"/>
    <path id="Path_8" data-name="Path 8" d="M53.847,31.106l3.721-7.443a39.361,39.361,0,0,0-5.4-2l-3.886,7.765a36.921,36.921,0,0,0-4.967-.716V20.127c-.945-.064-1.9-.107-2.863-.107s-1.918.043-2.863.107v8.588a36.913,36.913,0,0,0-4.967.716l-3.886-7.765a39.362,39.362,0,0,0-5.4,2l3.721,7.443a37.4,37.4,0,0,0-8.316,4.523L16.41,37.3l3.349,4.645,2.326-1.675a31.633,31.633,0,0,1,7.543-4.022v.043a11.451,11.451,0,1,0,21.606,0v-.043a31.633,31.633,0,0,1,7.543,4.022L61.1,41.948,64.453,37.3l-2.326-1.675a37.408,37.408,0,0,0-8.28-4.523ZM40.449,45.77a5.725,5.725,0,1,1,5.725-5.725A5.725,5.725,0,0,1,40.449,45.77Z" fill="#009695"/>
  </g>
</svg>
