<svg xmlns="http://www.w3.org/2000/svg" width="952" height="486.818" viewBox="0 0 952 486.818">
  <g id="Group_10" data-name="Group 10" transform="translate(-832 -1369)">
    <path id="Path_1" data-name="Path 1" d="M5,91.545H15.818v10.818H5V91.545Zm0,21.636H15.818V124H5V113.182ZM26.636,91.545H37.455v10.818H26.636V91.545Zm0,21.636H37.455V124H26.636V113.182Zm0,21.636H37.455v10.818H26.636V134.818ZM48.273,91.545H59.091v10.818H48.273V91.545Zm0,21.636H59.091V124H48.273V113.182ZM69.909,91.545H80.727v10.818H69.909V91.545Zm0,21.636H80.727V124H69.909V113.182ZM48.273,134.818H59.091v10.818H48.273V134.818ZM91.545,91.545h10.818v10.818H91.545V91.545Zm0,21.636h10.818V124H91.545V113.182Zm0,21.636h10.818v10.818H91.545V134.818Zm21.636-43.273H124v10.818H113.182V91.545Zm0,21.636H124V124H113.182V113.182Zm0,21.636H124v10.818H113.182V134.818Zm0,21.636H124v10.818H113.182V156.455Zm0,21.636H124v10.818H113.182V178.091ZM134.818,48.273h10.818V59.091H134.818V48.273Zm0,21.636h10.818V80.727H134.818V69.909Zm0,21.636h10.818v10.818H134.818V91.545Zm0,21.636h10.818V124H134.818V113.182Zm0,21.636h10.818v10.818H134.818V134.818Zm0,21.636h10.818v10.818H134.818V156.455Zm0,21.636h10.818v10.818H134.818V178.091Zm0,21.636h10.818v10.818H134.818V199.727Zm0,21.636h10.818v10.818H134.818V221.364ZM156.455,48.273h10.818V59.091H156.455V48.273Zm21.636-21.636h10.818V37.455H178.091V26.636ZM156.455,69.909h10.818V80.727H156.455V69.909Zm0,21.636h10.818v10.818H156.455V91.545Zm0,21.636h10.818V124H156.455V113.182Zm0,21.636h10.818v10.818H156.455V134.818Zm0,21.636h10.818v10.818H156.455V156.455Zm0,21.636h10.818v10.818H156.455V178.091Zm0,21.636h10.818v10.818H156.455V199.727Zm0,21.636h10.818v10.818H156.455V221.364Zm0,21.636h10.818v10.818H156.455V243ZM178.091,69.909h10.818V80.727H178.091V69.909Zm0,21.636h10.818v10.818H178.091V91.545Zm0,21.636h10.818V124H178.091V113.182Zm0,21.636h10.818v10.818H178.091V134.818Zm0,21.636h10.818v10.818H178.091V156.455Zm0,21.636h10.818v10.818H178.091V178.091Zm0,21.636h10.818v10.818H178.091V199.727Zm0,21.636h10.818v10.818H178.091V221.364Zm0,21.636h10.818v10.818H178.091V243Zm0,21.636h10.818v10.818H178.091V264.636Zm21.636-238h10.818V37.455H199.727V26.636Zm0,21.636h10.818V59.091H199.727V48.273Zm0,21.636h10.818V80.727H199.727V69.909Zm21.636,0h10.818V80.727H221.364V69.909Zm21.636,0h10.818V80.727H243V69.909ZM199.727,91.545h10.818v10.818H199.727V91.545Zm0,64.909h10.818v10.818H199.727V156.455Zm0,21.636h10.818v10.818H199.727V178.091Zm0,21.636h10.818v10.818H199.727V199.727Zm0,21.636h10.818v10.818H199.727V221.364Zm21.636-64.909h10.818v10.818H221.364V156.455Zm0,21.636h10.818v10.818H221.364V178.091Zm0,21.636h10.818v10.818H221.364V199.727Zm0,21.636h10.818v10.818H221.364V221.364Zm0,64.909h10.818v10.818H221.364V286.273Zm21.636,0h10.818v10.818H243V286.273Zm21.636,0h10.818v10.818H264.636V286.273Zm21.636,0h10.818v10.818H286.273V286.273ZM243,307.909h10.818v10.818H243V307.909Zm21.636,0h10.818v10.818H264.636V307.909Zm21.636,0h10.818v10.818H286.273V307.909Zm21.636,0h10.818v10.818H307.909V307.909ZM243,329.546h10.818v10.818H243V329.546Zm21.636,0h10.818v10.818H264.636V329.546Zm21.636,0h10.818v10.818H286.273V329.546Zm21.636,0h10.818v10.818H307.909V329.546Zm21.636,0h10.818v10.818H329.546V329.546ZM243,351.182h10.818V362H243V351.182Zm21.636,0h10.818V362H264.636V351.182Zm21.636,0h10.818V362H286.273V351.182Zm21.636,0h10.818V362H307.909V351.182Zm-43.273,21.636h10.818v10.818H264.636V372.818Zm21.636,0h10.818v10.818H286.273V372.818Zm21.636,0h10.818v10.818H307.909V372.818Zm-43.273,21.636h10.818v10.818H264.636V394.455Zm21.636,0h10.818v10.818H286.273V394.455Zm-21.636,21.636h10.818v10.818H264.636V416.091Zm0,21.636h10.818v10.818H264.636V437.727Zm0,21.636h10.818v10.818H264.636V459.364ZM286.273,481h10.818v10.818H286.273V481Zm0-64.909h10.818v10.818H286.273V416.091Zm21.636-21.636h10.818v10.818H307.909V394.455Zm21.636-43.273h10.818V362H329.546V351.182ZM243,134.818h10.818v10.818H243V134.818Zm0,21.636h10.818v10.818H243V156.455Zm0-64.909h10.818v10.818H243V91.545Zm0,21.636h10.818V124H243V113.182Zm0,64.909h10.818v10.818H243V178.091Zm21.636-43.273h10.818v10.818H264.636V134.818Zm0,21.636h10.818v10.818H264.636V156.455Zm0-64.909h10.818v10.818H264.636V91.545Zm0,21.636h10.818V124H264.636V113.182Zm0,64.909h10.818v10.818H264.636V178.091Zm21.636-21.636h10.818v10.818H286.273V156.455Zm0,21.636h10.818v10.818H286.273V178.091ZM243,199.727h10.818v10.818H243V199.727Zm-43.273,64.909h10.818v10.818H199.727V264.636ZM221.364,5h10.818V15.818H221.364V5Zm0,21.636h10.818V37.455H221.364V26.636ZM243,5h10.818V15.818H243V5Zm0,21.636h10.818V37.455H243V26.636Zm21.636,0h10.818V37.455H264.636V26.636Zm21.636,0h10.818V37.455H286.273V26.636Zm0,21.636h10.818V59.091H286.273V48.273Zm21.636-21.636h10.818V37.455H307.909V26.636Zm21.636,0h10.818V37.455H329.546V26.636Zm21.636,0H362V37.455H351.182V26.636Zm21.636,0h10.818V37.455H372.818V26.636Zm21.636,0h10.818V37.455H394.455V26.636Zm97.364,0h10.818V37.455H491.818V26.636Zm21.636,0h10.818V37.455H513.455V26.636ZM307.909,48.273h10.818V59.091H307.909V48.273Zm21.636,0h10.818V59.091H329.546V48.273Zm21.636,0H362V59.091H351.182V48.273Zm21.636,0h10.818V59.091H372.818V48.273ZM307.909,69.909h10.818V80.727H307.909V69.909Zm21.636,0h10.818V80.727H329.546V69.909ZM307.909,91.545h10.818v10.818H307.909V91.545Zm21.636,0h10.818v10.818H329.546V91.545Zm0,21.636h10.818V124H329.546V113.182Zm21.636-43.273H362V80.727H351.182V69.909Zm21.636,0h10.818V80.727H372.818V69.909Zm21.636-21.636h10.818V59.091H394.455V48.273Zm32.455,108.182h10.818v10.818H426.909V156.455Zm0,86.545h10.818v10.818H426.909V243Zm0,21.636h10.818v10.818H426.909V264.636Zm0,21.636h10.818v10.818H426.909V286.273ZM448.546,243h10.818v10.818H448.546V243Zm0,21.636h10.818v10.818H448.546V264.636Zm0,21.636h10.818v10.818H448.546V286.273ZM470.182,243H481v10.818H470.182V243Zm0,21.636H481v10.818H470.182V264.636Zm0,21.636H481v10.818H470.182V286.273ZM491.818,243h10.818v10.818H491.818V243Zm-43.273-21.636h10.818v10.818H448.546V221.364Zm21.636,0H481v10.818H470.182V221.364Zm0-43.273H481v10.818H470.182V178.091Zm0-21.636H481v10.818H470.182V156.455Zm21.636,64.909h10.818v10.818H491.818V221.364Zm0,43.273h10.818v10.818H491.818V264.636Zm0,21.636h10.818v10.818H491.818V286.273Zm0,43.273h10.818v10.818H491.818V329.546Zm0-21.636h10.818v10.818H491.818V307.909Zm0,43.273h10.818V362H491.818V351.182ZM513.455,243h10.818v10.818H513.455V243Zm0-21.636h10.818v10.818H513.455V221.364Zm0,43.273h10.818v10.818H513.455V264.636Zm0,21.636h10.818v10.818H513.455V286.273Zm0,43.273h10.818v10.818H513.455V329.546Zm0-21.636h10.818v10.818H513.455V307.909Zm0,43.273h10.818V362H513.455V351.182ZM535.091,243h10.818v10.818H535.091V243Zm0,21.636h10.818v10.818H535.091V264.636Zm0,21.636h10.818v10.818H535.091V286.273Zm0,43.273h10.818v10.818H535.091V329.546Zm0-21.636h10.818v10.818H535.091V307.909Zm21.636-21.636h10.818v10.818H556.727V286.273Zm21.636,0h10.818v10.818H578.364V286.273Zm-21.636,43.273h10.818v10.818H556.727V329.546Zm0-21.636h10.818v10.818H556.727V307.909Zm-21.636,43.273h10.818V362H535.091V351.182Zm43.273,21.636h10.818v10.818H578.364V372.818Zm0,21.636h10.818v10.818H578.364V394.455Zm-64.909-21.636h10.818v10.818H513.455V372.818Zm0,21.636h10.818v10.818H513.455V394.455ZM491.818,91.545h10.818v10.818H491.818V91.545Zm0,21.636h10.818V124H491.818V113.182Zm0,43.273h10.818v10.818H491.818V156.455Zm0-21.636h10.818v10.818H491.818V134.818Zm0,43.273h10.818v10.818H491.818V178.091Zm21.636-86.545h10.818v10.818H513.455V91.545Zm0,21.636h10.818V124H513.455V113.182Zm0,43.273h10.818v10.818H513.455V156.455Zm0-21.636h10.818v10.818H513.455V134.818Zm21.636-43.273h10.818v10.818H535.091V91.545Zm0,21.636h10.818V124H535.091V113.182Zm0,43.273h10.818v10.818H535.091V156.455Zm0-21.636h10.818v10.818H535.091V134.818Zm21.636-43.273h10.818v10.818H556.727V91.545Zm0,21.636h10.818V124H556.727V113.182Zm0,43.273h10.818v10.818H556.727V156.455Zm21.636,21.636h10.818v10.818H578.364V178.091Zm-21.636-43.273h10.818v10.818H556.727V134.818Zm21.636-43.273h10.818v10.818H578.364V91.545Zm0,21.636h10.818V124H578.364V113.182Zm0,43.273h10.818v10.818H578.364V156.455Zm0-21.636h10.818v10.818H578.364V134.818ZM600,91.545h10.818v10.818H600V91.545Zm0,21.636h10.818V124H600V113.182Zm0,43.273h10.818v10.818H600V156.455Zm0-21.636h10.818v10.818H600V134.818Zm21.636-43.273h10.818v10.818H621.636V91.545Zm0,21.636h10.818V124H621.636V113.182Zm0,43.273h10.818v10.818H621.636V156.455Zm0-21.636h10.818v10.818H621.636V134.818Zm21.636-43.273h10.818v10.818H643.273V91.545Zm0,21.636h10.818V124H643.273V113.182Zm0,43.273h10.818v10.818H643.273V156.455Zm0-21.636h10.818v10.818H643.273V134.818Zm21.636-43.273h10.818v10.818H664.909V91.545Zm0,21.636h10.818V124H664.909V113.182Zm0,43.273h10.818v10.818H664.909V156.455Zm0-21.636h10.818v10.818H664.909V134.818Zm21.636-43.273h10.818v10.818H686.545V91.545Zm0,21.636h10.818V124H686.545V113.182Zm0,43.273h10.818v10.818H686.545V156.455Zm0-21.636h10.818v10.818H686.545V134.818Zm21.636-43.273H719v10.818H708.182V91.545Zm0,21.636H719V124H708.182V113.182Zm0,43.273H719v10.818H708.182V156.455Zm0-21.636H719v10.818H708.182V134.818Zm21.636-43.273h10.818v10.818H729.818V91.545Zm0,21.636h10.818V124H729.818V113.182Zm0,43.273h10.818v10.818H729.818V156.455Zm0-21.636h10.818v10.818H729.818V134.818Zm21.636-43.273h10.818v10.818H751.455V91.545Zm0,21.636h10.818V124H751.455V113.182Zm0,43.273h10.818v10.818H751.455V156.455ZM556.727,221.364h10.818v10.818H556.727V221.364Zm21.636,0h10.818v10.818H578.364V221.364Zm21.636,0h10.818v10.818H600V221.364Zm21.636,0h10.818v10.818H621.636V221.364Zm21.636,0h10.818v10.818H643.273V221.364Zm21.636,0h10.818v10.818H664.909V221.364Zm21.636,0h10.818v10.818H686.545V221.364Zm21.636,0H719v10.818H708.182V221.364Zm21.636,0h10.818v10.818H729.818V221.364Zm21.636,0h10.818v10.818H751.455V221.364ZM578.364,243h10.818v10.818H578.364V243ZM600,243h10.818v10.818H600V243Zm21.636,0h10.818v10.818H621.636V243Zm21.636,0h10.818v10.818H643.273V243Zm21.636,0h10.818v10.818H664.909V243Zm0,21.636h10.818v10.818H664.909V264.636Zm0,21.636h10.818v10.818H664.909V286.273ZM686.545,243h10.818v10.818H686.545V243Zm21.636,0H719v10.818H708.182V243Zm21.636,0h10.818v10.818H729.818V243Zm-21.636,21.636H719v10.818H708.182V264.636Zm21.636,0h10.818v10.818H729.818V264.636Zm0,21.636h10.818v10.818H729.818V286.273Zm0,21.636h10.818v10.818H729.818V307.909Zm21.636,0h10.818v10.818H751.455V307.909Zm21.636,0h10.818v10.818H773.091V307.909Zm-21.636,21.636h10.818v10.818H751.455V329.546Zm21.636,0h10.818v10.818H773.091V329.546Zm54.091,0H838v10.818H827.182V329.546Zm21.636,0h10.818v10.818H848.818V329.546ZM751.455,243h10.818v10.818H751.455V243Zm0-108.182h10.818v10.818H751.455V134.818Zm21.636-43.273h10.818v10.818H773.091V91.545Zm0,21.636h10.818V124H773.091V113.182Zm0,43.273h10.818v10.818H773.091V156.455Zm0-21.636h10.818v10.818H773.091V134.818Zm21.636-43.273h10.818v10.818H794.727V91.545Zm0,21.636h10.818V124H794.727V113.182Zm0,43.273h10.818v10.818H794.727V156.455ZM621.636,178.091h10.818v10.818H621.636V178.091Zm21.636,0h10.818v10.818H643.273V178.091Zm21.636,0h10.818v10.818H664.909V178.091Zm21.636,0h10.818v10.818H686.545V178.091Zm21.636,0H719v10.818H708.182V178.091Zm21.636,0h10.818v10.818H729.818V178.091Zm21.636,0h10.818v10.818H751.455V178.091Zm21.636,0h10.818v10.818H773.091V178.091Zm21.636,0h10.818v10.818H794.727V178.091ZM751.455,372.818h10.818v10.818H751.455V372.818Zm21.636,0h10.818v10.818H773.091V372.818Zm21.636,0h10.818v10.818H794.727V372.818Zm21.636,0h10.818v10.818H816.364V372.818Zm-64.909,21.636h10.818v10.818H751.455V394.455Zm21.636,0h10.818v10.818H773.091V394.455Zm21.636,0h10.818v10.818H794.727V394.455Zm21.636,0h10.818v10.818H816.364V394.455ZM838,372.818h10.818v10.818H838V372.818Zm0,21.636h10.818v10.818H838V394.455Zm-43.273,21.636h10.818v10.818H794.727V416.091Zm21.636,0h10.818v10.818H816.364V416.091Zm21.636,0h10.818v10.818H838V416.091Zm21.636,0h10.818v10.818H859.636V416.091Zm43.273,0h10.818v10.818H902.909V416.091Zm0,21.636h10.818v10.818H902.909V437.727Zm-281.273-238h10.818v10.818H621.636V199.727Zm21.636,0h10.818v10.818H643.273V199.727Zm21.636,0h10.818v10.818H664.909V199.727Zm21.636,0h10.818v10.818H686.545V199.727Zm21.636,0H719v10.818H708.182V199.727Zm21.636,0h10.818v10.818H729.818V199.727Zm21.636,0h10.818v10.818H751.455V199.727Zm21.636,0h10.818v10.818H773.091V199.727Zm21.636-64.909h10.818v10.818H794.727V134.818Zm21.636-43.273h10.818v10.818H816.364V91.545Zm0,21.636h10.818V124H816.364V113.182Zm0,43.273h10.818v10.818H816.364V156.455Zm0-21.636h10.818v10.818H816.364V134.818ZM838,91.545h10.818v10.818H838V91.545ZM600,69.909h10.818V80.727H600V69.909Zm21.636,0h10.818V80.727H621.636V69.909ZM600,48.273h10.818V59.091H600V48.273Zm21.636,0h10.818V59.091H621.636V48.273Zm21.636,21.636h10.818V80.727H643.273V69.909Zm21.636,0h10.818V80.727H664.909V69.909Zm21.636,0h10.818V80.727H686.545V69.909Zm21.636,0H719V80.727H708.182V69.909Zm21.636,0h10.818V80.727H729.818V69.909ZM686.545,48.273h10.818V59.091H686.545V48.273Zm21.636,0H719V59.091H708.182V48.273Zm0-21.636H719V37.455H708.182V26.636Zm21.636,21.636h10.818V59.091H729.818V48.273Zm21.636,21.636h10.818V80.727H751.455V69.909Zm21.636,0h10.818V80.727H773.091V69.909Zm21.636,0h10.818V80.727H794.727V69.909Zm21.636,0h10.818V80.727H816.364V69.909Zm21.636,0h10.818V80.727H838V69.909Zm0-21.636h10.818V59.091H838V48.273Zm0,64.909h10.818V124H838V113.182Zm21.636-21.636h10.818v10.818H859.636V91.545Zm0,21.636h10.818V124H859.636V113.182Zm21.636-21.636h10.818v10.818H881.273V91.545Zm0,21.636h10.818V124H881.273V113.182Zm21.636-21.636h10.818v10.818H902.909V91.545Zm21.636,0h10.818v10.818H924.545V91.545Zm21.636,0H957v10.818H946.182V91.545Zm-43.273,21.636h10.818V124H902.909V113.182Zm-21.636,21.636h10.818v10.818H881.273V134.818ZM513.455,178.091h10.818v10.818H513.455V178.091Zm21.636,21.636h10.818v10.818H535.091V199.727Zm21.636,0h10.818v10.818H556.727V199.727ZM448.546,178.091h10.818v10.818H448.546V178.091Zm0-43.273h10.818v10.818H448.546V134.818Z" transform="translate(827 1364)" fill="#e2e2e2" fill-rule="evenodd"/>
    <path id="Path_2" data-name="Path 2" d="M34.273,124.955h0Zm21.636,0h0Zm43.273,0h0Zm21.636,0h0ZM110,135.773h10.818v10.818H110V135.773Zm0,21.636h10.818v10.818H110V157.409Zm32.455-32.455h0Zm-10.818,10.818h10.818v10.818H131.636V135.773Zm0,21.636h10.818v10.818H131.636V157.409Zm0,21.636h10.818v10.818H131.636V179.045Zm0,21.636h10.818V211.5H131.636V200.682Zm32.455-75.727h0Zm-10.818,10.818h10.818v10.818H153.273V135.773Zm0,21.636h10.818v10.818H153.273V157.409Zm0,21.636h10.818v10.818H153.273V179.045Zm0,21.636h10.818V211.5H153.273V200.682Zm0,21.636h10.818v10.818H153.273V222.318Zm32.455-97.364h0Zm-10.818,10.818h10.818v10.818H174.909V135.773Zm0,21.636h10.818v10.818H174.909V157.409Zm0,21.636h10.818v10.818H174.909V179.045Zm0,21.636h10.818V211.5H174.909V200.682Zm0,21.636h10.818v10.818H174.909V222.318Zm21.636-86.545h10.818v10.818H196.545V135.773Zm0,21.636h10.818v10.818H196.545V157.409Zm0,21.636h10.818v10.818H196.545V179.045Zm0,21.636h10.818V211.5H196.545V200.682Zm21.636-64.909H229v10.818H218.182V135.773Zm0,21.636H229v10.818H218.182V157.409Zm0,21.636H229v10.818H218.182V179.045Zm0,21.636H229V211.5H218.182V200.682Zm32.455-75.727h0Zm-10.818,10.818h10.818v10.818H239.818V135.773Zm0,21.636h10.818v10.818H239.818V157.409Zm32.455-32.455h0Zm-10.818,10.818h10.818v10.818H261.455V135.773Zm0,21.636h10.818v10.818H261.455V157.409Zm21.636-21.636h10.818v10.818H283.091V135.773Zm0,21.636h10.818v10.818H283.091V157.409Zm-43.273,21.636h10.818v10.818H239.818V179.045Z" transform="translate(830.182 1384.682)" fill="#144f65" fill-rule="evenodd"/>
    <path id="Path_3" data-name="Path 3" d="M364.864,226.455h10.818v10.818H364.864V226.455Zm0,21.636h10.818v10.818H364.864V248.091Zm21.636,0h10.818v10.818H386.5V248.091Zm21.636,0h10.818v10.818H408.136V248.091Z" transform="translate(889.045 1402.182)" fill="#144f65" fill-rule="evenodd"/>
  </g>
</svg>
