<svg xmlns="http://www.w3.org/2000/svg" width="48" height="49.364" viewBox="0 0 48 49.364">
  <g id="noun-virtual-3554371" transform="translate(-19 -18)">
    <path id="Path_4" data-name="Path 4" d="M66.942,64H60v6.17h6.942a3.094,3.094,0,0,1,3.085,3.085v4.628H76.2V73.256A9.283,9.283,0,0,0,66.942,64Z" transform="translate(-9.376 -10.52)" fill="#009695"/>
    <rect id="Rectangle_20" data-name="Rectangle 20" width="17" height="7" transform="translate(50 41.403)" fill="#009695"/>
    <path id="Path_5" data-name="Path 5" d="M70.027,22v4.628a3.094,3.094,0,0,1-3.085,3.085H60v6.17h6.942A9.283,9.283,0,0,0,76.2,26.628V22Z" transform="translate(-9.376 -0.915)" fill="#009695"/>
    <ellipse id="Ellipse_1" data-name="Ellipse 1" cx="3" cy="2.5" rx="3" ry="2.5" transform="translate(23 34.403)" fill="#009695"/>
    <path id="Path_6" data-name="Path 6" d="M39.054,34.66A16.955,16.955,0,0,0,22.085,18H19v6.17h3.085a10.83,10.83,0,0,1,10.8,10.8v1.543l6.17,9.256h-6.17v10.8H23.628v10.8H29.8V62.736h3.085a6.189,6.189,0,0,0,6.17-6.17V51.938a6.189,6.189,0,0,0,6.17-6.17,6.473,6.473,0,0,0-1-3.394Z" transform="translate(0)" fill="#009695"/>
  </g>
</svg>
