<svg xmlns="http://www.w3.org/2000/svg" width="48.04" height="45.037" viewBox="0 0 48.04 45.037">
  <path id="noun-vr-headset-3555453" d="M51.4,24.5h-.57a6,6,0,0,0-5.81-4.5h-6a6,6,0,0,0-5.81,4.5h-.57A14.645,14.645,0,0,0,18.06,38.015H18V53.027a12.01,12.01,0,0,0,12.01,12.01h8.414l3.6-4.316,3.6,4.316H54.03a12.01,12.01,0,0,0,12.01-12.01V38.015h-.06A14.645,14.645,0,0,0,51.4,24.5Zm8.55,13.511H51.027V30.509H51.4a8.64,8.64,0,0,1,8.55,7.506ZM39.017,26h6v12.01h-6Zm-6.38,4.5h.375v7.506H24.088a8.64,8.64,0,0,1,8.55-7.506Zm27.4,22.519a6,6,0,0,1-6,6h-5.6l-6.41-7.694-6.41,7.694h-5.6a6,6,0,0,1-6-6V44.02h36.03Z" transform="translate(-18 -20)" fill="#009695"/>
</svg>
